<?xml version="1.0" encoding="UTF-8"?>
<svg xmlns="http://www.w3.org/2000/svg" viewBox="0 0 512 512">
  <rect width="512" height="512" fill="#f4f1ea"/>
  <g transform="translate(72 72) scale(8.489272713674493)">
    <svg viewBox="-1.5000003248392986 -0.9288068454897029 43.34882532483928 49.92672416748323">
      <g transform="translate(45.769535,-123.9983)">
    <path fill="#16140f" d="M -26.497002000000013,171.2256800000001 C -31.40868400000001,170.2871300000001 -34.98753100000001,168.4447300000001 -38.58927300000001,165.0005400000001 C -41.82450100000001,161.90684000000007 -43.985360000000014,158.28166000000007 -45.143920000000016,154.00410000000008 C -45.92643200000001,151.11496000000008 -45.98562600000002,145.3520000000001 -45.260779000000014,142.62702000000007 C -44.02111400000001,137.96664000000007 -41.73448100000002,134.08711000000008 -38.32109300000001,130.85306000000008 C -34.93231800000001,127.64233000000009 -31.022508000000013,125.70155000000008 -26.272000000000013,124.87204000000008 C -19.62747500000001,123.71180000000008 -12.007533000000013,125.95631000000009 -7.357439300000014,130.44346000000007 C -5.6118157000000135,132.12792000000007 -5.420710000000014,132.41264000000007 -5.420710000000014,133.32894000000007 C -5.420710000000014,134.7842100000001 -6.791411300000014,136.14473000000007 -8.257571000000013,136.14473000000007 C -9.145731200000013,136.14473000000007 -9.559409600000013,135.91602000000006 -11.128300000000014,134.55759000000006 C -14.482902000000013,131.65301000000005 -18.265814000000013,130.22739000000007 -22.618626000000013,130.22739000000007 C -27.512270000000015,130.22739000000007 -31.245646000000015,131.79515000000006 -34.82082600000001,135.35147000000006 C -36.68224600000001,137.20307000000005 -37.297573000000014,138.03108000000006 -38.17038700000001,139.85881000000006 C -41.92050200000001,147.71177000000006 -40.03874200000001,156.82501000000008 -33.601132000000014,161.98741000000007 C -28.086925000000015,166.40932000000006 -20.705153000000013,167.25004000000007 -14.502794000000016,164.16254000000006 C -13.260543000000016,163.54415000000006 -11.852947000000016,162.58961000000005 -11.195502000000015,161.91975000000005 C -10.565981000000015,161.27833000000004 -9.663965100000015,160.62467000000004 -9.191022400000016,160.46716000000006 C -7.3976357000000155,159.86988000000005 -5.685293400000015,161.13653000000005 -5.685293400000015,163.06041000000008 C -5.685293400000015,165.42027000000007 -11.423288000000015,169.47657000000007 -16.665501000000013,170.82253000000009 C -19.396613000000013,171.5237500000001 -23.958219000000014,171.7108100000001 -26.497002000000013,171.2256800000001"/>
  </g>
    </svg>
  </g>
</svg>
